{"title":"Golmaal 3 Hindi Bluray x264 1080p DTS-FictionBoy@Mastitorrents","uid":6243982,"size":8529929453,"categoryP":"video","categoryS":"hd___movies","magnet":"?xt=urn:btih:8781d915ad26952414880f9f7e6ffcd81adeff50&amp;dn=Golmaal+3+Hindi+Bluray+x264+1080p+DTS-FictionBoy%40Mastitorrents&amp;tr=udp%3A%2F%2Ftracker.openbittorrent.com%3A80&amp;tr=udp%3A%2F%2Fopen.demonii.com%3A1337&amp;tr=udp%3A%2F%2Ftracker.coppersurfer.tk%3A6969&amp;tr=udp%3A%2F%2Fexodus.desync.com%3A6969","seeders":0,"leechers":1,"uploader":"amanrulz","files":1,"time":1300177126,"description":"mastitorrents.com\n &lt;a href=&quot;\nhttp://mastitorrents.com/forums/index.php&quot; rel=&quot;nofollow&quot; target=&quot;_NEW&quot;&gt;\nhttp://mastitorrents.com/forums/index.php&lt;/a&gt;\n\nSource: BD50\n\nGeneral\n\nFormat                           : Matroska\nFile size                        : 7.94 GiB\nDuration                         : 2h 20mn\n\n\n\nVideo\n\nFormat                           : AVC\nFormat profile                   : &lt;a class=&quot;__cf_email__&quot; href=&quot;/cdn-cgi/l/email-protection&quot; data-cfemail=&quot;6d25040a052d2159435c&quot;&gt;[email&amp;#160;protected]&lt;/a&gt;&lt;script cf-hash='f9e31' type=&quot;text/javascript&quot;&gt;\n/* &lt;![CDATA[ */!function(){try{var t=&quot;currentScript&quot;in document?document.currentScript:function(){for(var t=document.getElementsByTagName(&quot;script&quot;),e=t.length;e--;)if(t[e].getAttribute(&quot;cf-hash&quot;))return t[e]}();if(t&amp;&amp;t.previousSibling){var e,r,n,i,c=t.previousSibling,a=c.getAttribute(&quot;data-cfemail&quot;);if(a){for(e=&quot;&quot;,r=parseInt(a.substr(0,2),16),n=2;a.length-n;n+=2)i=parseInt(a.substr(n,2),16)^r,e+=String.fromCharCode(i);e=document.createTextNode(e),c.parentNode.replaceChild(e,c)}}}catch(u){}}();/* ]]&gt; */&lt;/script&gt;\nFormat settings, ReFrames        : 4 frames\nDuration                         : 2h 20mn\nBit rate                         : 6615 Kbps\nWidth                            : 1 920 pixels\nHeight                           : 864 pixels\nDisplay aspect ratio             : 2.22\nFrame rate                       : 24.000 fps\nBits/(Pixel*Frame)               : 0.166\nStream size                      : 6.31 GiB (79%)\nWriting library                  : x264 core 114 r1913 5fd3dce\n\n\nAudio\n\nFormat                           : DTS\nDuration                         : 2h 25mn\nBit rate mode                    : Constant\nBit rate                         : 1510 Kbps\nChannel(s)                       : 6 channels\nChannel positions                : Front: L C R, Side: L R, LFE\nStream size                      : 1.48 GiB (19%)\nLanguage                         : Hindi\n\nSubtitle\n\nLanguage                         : English\n","torrent":{"xt":"urn:btih:8781d915ad26952414880f9f7e6ffcd81adeff50","amp;dn":"Golmaal+3+Hindi+Bluray+x264+1080p+DTS-FictionBoy%40Mastitorrents","amp;tr":["udp%3A%2F%2Ftracker.openbittorrent.com%3A80","udp%3A%2F%2Fopen.demonii.com%3A1337","udp%3A%2F%2Ftracker.coppersurfer.tk%3A6969","udp%3A%2F%2Fexodus.desync.com%3A6969"],"infoHash":"8781d915ad26952414880f9f7e6ffcd81adeff50","infoHashBuffer":{"type":"Buffer","data":[135,129,217,21,173,38,149,36,20,136,15,159,126,111,252,216,26,222,255,80]},"announce":[],"urlList":[]}}